<mxfile host="app.diagrams.net" agent="Mozilla/5.0 (Windows NT 10.0; Win64; x64) AppleWebKit/537.36 (KHTML, like Gecko) Chrome/130.0.0.0 Safari/537.36" version="24.8.4">
  <diagram name="Page-1" id="n08hylUFQbMWqEx-Y5PI">
    <mxGraphModel grid="0" page="0" gridSize="10" guides="1" tooltips="1" connect="1" arrows="1" fold="1" pageScale="1" pageWidth="827" pageHeight="1169" math="0" shadow="0">
      <root>
        <mxCell id="0" />
        <mxCell id="1" parent="0" />
        <mxCell id="gYFrw2nUzzoYrddTfurj-1" value="Giảng viên" style="shape=umlActor;verticalLabelPosition=bottom;verticalAlign=top;html=1;fontSize=19;" vertex="1" parent="1">
          <mxGeometry x="130" y="1766" width="30" height="60" as="geometry" />
        </mxCell>
        <mxCell id="gYFrw2nUzzoYrddTfurj-2" value="" style="endArrow=classic;html=1;rounded=0;fontSize=19;startSize=8;endSize=8;curved=1;" edge="1" parent="1">
          <mxGeometry width="50" height="50" relative="1" as="geometry">
            <mxPoint x="145" y="1797" as="sourcePoint" />
            <mxPoint x="338" y="1779" as="targetPoint" />
          </mxGeometry>
        </mxCell>
        <mxCell id="gYFrw2nUzzoYrddTfurj-3" style="edgeStyle=none;curved=1;rounded=0;orthogonalLoop=1;jettySize=auto;html=1;fontSize=19;startSize=8;endSize=8;" edge="1" parent="1" source="gYFrw2nUzzoYrddTfurj-4">
          <mxGeometry relative="1" as="geometry">
            <mxPoint x="582.4118221507354" y="1954.470458984375" as="targetPoint" />
          </mxGeometry>
        </mxCell>
        <mxCell id="gYFrw2nUzzoYrddTfurj-4" value="Quản lý khóa học" style="ellipse;whiteSpace=wrap;html=1;fontSize=19;" vertex="1" parent="1">
          <mxGeometry x="335" y="1745" width="140" height="70" as="geometry" />
        </mxCell>
        <mxCell id="gYFrw2nUzzoYrddTfurj-5" value="" style="endArrow=classic;html=1;rounded=0;fontSize=19;startSize=8;endSize=8;curved=1;" edge="1" parent="1">
          <mxGeometry width="50" height="50" relative="1" as="geometry">
            <mxPoint x="470" y="1797" as="sourcePoint" />
            <mxPoint x="650" y="1859" as="targetPoint" />
          </mxGeometry>
        </mxCell>
        <mxCell id="gYFrw2nUzzoYrddTfurj-6" value="Quản lý lịch học" style="ellipse;whiteSpace=wrap;html=1;fontSize=19;" vertex="1" parent="1">
          <mxGeometry x="645" y="1834" width="140" height="70" as="geometry" />
        </mxCell>
        <mxCell id="gYFrw2nUzzoYrddTfurj-7" value="Quản lý sinh viên" style="ellipse;whiteSpace=wrap;html=1;fontSize=19;" vertex="1" parent="1">
          <mxGeometry x="579" y="1932" width="140" height="70" as="geometry" />
        </mxCell>
        <mxCell id="gYFrw2nUzzoYrddTfurj-8" value="Tìm kiếm" style="ellipse;whiteSpace=wrap;html=1;fontSize=19;" vertex="1" parent="1">
          <mxGeometry x="237" y="2137" width="140" height="70" as="geometry" />
        </mxCell>
        <mxCell id="gYFrw2nUzzoYrddTfurj-9" style="edgeStyle=none;curved=1;rounded=0;orthogonalLoop=1;jettySize=auto;html=1;entryX=0.592;entryY=0.041;entryDx=0;entryDy=0;entryPerimeter=0;fontSize=19;startSize=8;endSize=8;" edge="1" parent="1" source="gYFrw2nUzzoYrddTfurj-4" target="gYFrw2nUzzoYrddTfurj-8">
          <mxGeometry relative="1" as="geometry" />
        </mxCell>
        <mxCell id="gYFrw2nUzzoYrddTfurj-10" value="&amp;lt;&amp;lt;extend&amp;gt;&amp;gt;" style="html=1;verticalAlign=bottom;endArrow=open;dashed=1;endSize=8;curved=0;rounded=0;fontSize=19;entryX=1;entryY=0.304;entryDx=0;entryDy=0;entryPerimeter=0;" edge="1" parent="1" target="gYFrw2nUzzoYrddTfurj-6">
          <mxGeometry relative="1" as="geometry">
            <mxPoint x="918" y="1817" as="sourcePoint" />
            <mxPoint x="772" y="1775" as="targetPoint" />
          </mxGeometry>
        </mxCell>
        <mxCell id="gYFrw2nUzzoYrddTfurj-11" value="Thêm, sửa, xóa" style="ellipse;whiteSpace=wrap;html=1;fontSize=19;" vertex="1" parent="1">
          <mxGeometry x="921" y="1786" width="140" height="70" as="geometry" />
        </mxCell>
        <mxCell id="gYFrw2nUzzoYrddTfurj-12" value="&amp;lt;&amp;lt;extend&amp;gt;&amp;gt;" style="html=1;verticalAlign=bottom;endArrow=open;dashed=1;endSize=8;curved=0;rounded=0;fontSize=19;exitX=0;exitY=0.5;exitDx=0;exitDy=0;entryX=1;entryY=0.5;entryDx=0;entryDy=0;" edge="1" parent="1" source="gYFrw2nUzzoYrddTfurj-13" target="gYFrw2nUzzoYrddTfurj-7">
          <mxGeometry relative="1" as="geometry">
            <mxPoint x="719" y="1966" as="sourcePoint" />
            <mxPoint x="864" y="1929" as="targetPoint" />
          </mxGeometry>
        </mxCell>
        <mxCell id="gYFrw2nUzzoYrddTfurj-13" value="Thêm, sửa, xóa" style="ellipse;whiteSpace=wrap;html=1;fontSize=19;" vertex="1" parent="1">
          <mxGeometry x="838" y="2037" width="140" height="70" as="geometry" />
        </mxCell>
        <mxCell id="gYFrw2nUzzoYrddTfurj-14" value="&amp;lt;&amp;lt;extend&amp;gt;&amp;gt;" style="html=1;verticalAlign=bottom;endArrow=open;dashed=1;endSize=8;curved=0;rounded=0;fontSize=19;" edge="1" parent="1" source="gYFrw2nUzzoYrddTfurj-15">
          <mxGeometry relative="1" as="geometry">
            <mxPoint x="316" y="2207" as="sourcePoint" />
            <mxPoint x="333" y="2211" as="targetPoint" />
          </mxGeometry>
        </mxCell>
        <mxCell id="gYFrw2nUzzoYrddTfurj-15" value="Tìm kiếm sinh viên" style="ellipse;whiteSpace=wrap;html=1;fontSize=19;" vertex="1" parent="1">
          <mxGeometry x="280" y="2323" width="140" height="70" as="geometry" />
        </mxCell>
        <mxCell id="gYFrw2nUzzoYrddTfurj-16" value="&amp;lt;&amp;lt;extend&amp;gt;&amp;gt;" style="html=1;verticalAlign=bottom;endArrow=open;dashed=1;endSize=8;curved=0;rounded=0;fontSize=19;entryX=0.243;entryY=0.875;entryDx=0;entryDy=0;entryPerimeter=0;" edge="1" parent="1" target="gYFrw2nUzzoYrddTfurj-8">
          <mxGeometry relative="1" as="geometry">
            <mxPoint x="178" y="2309" as="sourcePoint" />
            <mxPoint x="251" y="2157" as="targetPoint" />
          </mxGeometry>
        </mxCell>
        <mxCell id="gYFrw2nUzzoYrddTfurj-17" value="Tìm kiếm giáo viên" style="ellipse;whiteSpace=wrap;html=1;fontSize=19;" vertex="1" parent="1">
          <mxGeometry x="86" y="2304" width="140" height="55" as="geometry" />
        </mxCell>
        <mxCell id="gYFrw2nUzzoYrddTfurj-18" value="&amp;lt;&amp;lt;extend&amp;gt;&amp;gt;" style="html=1;verticalAlign=bottom;endArrow=open;dashed=1;endSize=8;curved=0;rounded=0;fontSize=19;exitX=0.65;exitY=0.041;exitDx=0;exitDy=0;exitPerimeter=0;entryX=0;entryY=0.5;entryDx=0;entryDy=0;" edge="1" parent="1" source="gYFrw2nUzzoYrddTfurj-19" target="gYFrw2nUzzoYrddTfurj-8">
          <mxGeometry relative="1" as="geometry">
            <mxPoint x="169" y="2121.5" as="sourcePoint" />
            <mxPoint x="31" y="2087" as="targetPoint" />
          </mxGeometry>
        </mxCell>
        <mxCell id="gYFrw2nUzzoYrddTfurj-19" value="Tìm kiếm điểm" style="ellipse;whiteSpace=wrap;html=1;fontSize=19;" vertex="1" parent="1">
          <mxGeometry x="-10" y="2224" width="140" height="55" as="geometry" />
        </mxCell>
        <mxCell id="gYFrw2nUzzoYrddTfurj-20" value="&amp;lt;&amp;lt;extend&amp;gt;&amp;gt;" style="html=1;verticalAlign=bottom;endArrow=open;dashed=1;endSize=8;curved=0;rounded=0;fontSize=19;exitX=0.636;exitY=0.005;exitDx=0;exitDy=0;exitPerimeter=0;entryX=0.05;entryY=0.732;entryDx=0;entryDy=0;entryPerimeter=0;" edge="1" parent="1" source="gYFrw2nUzzoYrddTfurj-21" target="gYFrw2nUzzoYrddTfurj-8">
          <mxGeometry relative="1" as="geometry">
            <mxPoint x="247" y="2182" as="sourcePoint" />
            <mxPoint x="-101" y="2348" as="targetPoint" />
          </mxGeometry>
        </mxCell>
        <mxCell id="gYFrw2nUzzoYrddTfurj-21" value="Tìm kiếm thời khóa biểu" style="ellipse;whiteSpace=wrap;html=1;fontSize=19;" vertex="1" parent="1">
          <mxGeometry x="-91" y="2393" width="140" height="55" as="geometry" />
        </mxCell>
        <mxCell id="gYFrw2nUzzoYrddTfurj-22" value="&amp;lt;&amp;lt;extend&amp;gt;&amp;gt;" style="html=1;verticalAlign=bottom;endArrow=open;dashed=1;endSize=8;curved=0;rounded=0;fontSize=19;entryX=0.5;entryY=1;entryDx=0;entryDy=0;exitX=0.5;exitY=0;exitDx=0;exitDy=0;" edge="1" parent="1" source="gYFrw2nUzzoYrddTfurj-23" target="gYFrw2nUzzoYrddTfurj-8">
          <mxGeometry relative="1" as="geometry">
            <mxPoint x="78" y="2463" as="sourcePoint" />
            <mxPoint x="222" y="2453" as="targetPoint" />
          </mxGeometry>
        </mxCell>
        <mxCell id="gYFrw2nUzzoYrddTfurj-23" value="Tìm kiếm môn học" style="ellipse;whiteSpace=wrap;html=1;fontSize=19;" vertex="1" parent="1">
          <mxGeometry x="155" y="2454" width="140" height="55" as="geometry" />
        </mxCell>
      </root>
    </mxGraphModel>
  </diagram>
</mxfile>
